Coordinates
version=1
nRows=29
nColumns=24
inDegrees=yes

Units are S.I. units (second, meters, Newtons, ...)
Angles are in degrees.

endheader
time	pelvis_tilt	pelvis_list	pelvis_rotation	pelvis_tx	pelvis_ty	pelvis_tz	hip_flexion_r	hip_adduction_r	hip_rotation_r	knee_angle_r	ankle_angle_r	subtalar_angle_r	mtp_angle_r	hip_flexion_l	hip_adduction_l	hip_rotation_l	knee_angle_l	ankle_angle_l	subtalar_angle_l	mtp_angle_l	lumbar_extension	lumbar_bending	lumbar_rotation
      0.92466667	    -10.42085546	      0.72282231	     -2.81347221	     -0.08176590	      1.04536075	      0.31155476	      1.52022938	      0.47869373	     -0.35091435	    -15.44865277	     18.53989301	      0.08041959	      1.79861564	     34.87425778	     -1.72414829	     -3.54612669	    -14.38249000	      8.72359491	      5.65518179	      6.50954012	     -0.75593675	      2.62606776	      5.54078727
      0.92883333	    -10.39408008	      0.65924681	     -2.92962648	     -0.07599192	      1.04433784	      0.31123152	      1.37606432	      0.48451936	     -0.27886692	    -15.92753858	     18.68053225	      0.18957460	      1.84861379	     34.86765283	     -1.75755648	     -3.43422227	    -14.52217948	      8.69715002	      5.59724946	      6.48360802	     -0.75541612	      2.68986612	      5.54660036
      0.93300000	    -10.35526888	      0.64448139	     -3.03730911	     -0.07017776	      1.04336005	      0.31085926	      1.26461438	      0.41659406	     -0.32361370	    -16.50427054	     18.86719157	      0.57931026	      1.97495626	     34.81975598	     -1.72539415	     -3.25684457	    -14.67547201	      8.61468775	      5.46031732	      6.42922848	     -0.77703446	      2.66971991	      5.55843727
      0.93716667	    -10.29612289	      0.62281258	     -3.14468907	     -0.06434735	      1.04245994	      0.31049853	      1.14275717	      0.35829615	     -0.33142004	    -17.10351733	     18.99015976	      0.84916415	      2.13149956	     34.75678035	     -1.70063837	     -3.09862524	    -14.91684999	      8.50222863	      5.30457118	      6.37366880	     -0.81164133	      2.66402912	      5.55565162
      0.94133333	    -10.25358498	      0.59585281	     -3.25742731	     -0.05849400	      1.04155323	      0.31014691	      1.05643698	      0.30758247	     -0.31203537	    -17.73917966	     19.08781096	      1.06644151	      2.26959594	     34.72308896	     -1.68770279	     -2.97034889	    -15.25449747	      8.37229084	      5.15540719	      6.33387534	     -0.80971777	      2.67611743	      5.54927982
      0.94550000	    -10.19094349	      0.60168071	     -3.34667110	     -0.05262335	      1.04070514	      0.30974665	      0.98413085	      0.20689973	     -0.37849128	    -18.45090577	     19.15344377	      1.41724147	      2.50420272	     34.65226287	     -1.62072944	     -2.78005158	    -15.60979662	      8.19592349	      4.96402471	      6.27925972	     -0.84507558	      2.61247678	      5.52753351
      0.94966667	    -10.14785155	      0.57694252	     -3.43831825	     -0.04675849	      1.03986048	      0.30933332	      0.94536888	      0.14501035	     -0.38923817	    -19.17605889	     19.08861782	      1.57783245	      5.49293196	     34.61344974	     -1.58249859	     -2.56390610	    -16.04859290	      8.02896015	      4.73943878	      5.73737907	     -0.84741721	      2.61192671	      5.49474571
      0.95383333	    -10.06648841	      0.57285049	     -3.54199648	     -0.04087968	      1.03913279	      0.30897682	      0.89404344	      0.05797297	     -0.38410648	    -19.96150257	     19.08694268	      1.86574821	      5.55060762	     34.54332019	     -1.54502824	     -2.47177475	    -16.55714647	      7.81560285	      4.61704921	      5.73192533	     -0.90533572	      2.55704532	      5.46179163
      0.95800000	    -10.01659416	      0.56420959	     -3.61829385	     -0.03498748	      1.03836765	      0.30853089	      0.91096284	     -0.03380661	     -0.45124111	    -20.82228906	     19.04113745	      2.17458958	      5.65749734	     34.50693263	     -1.48842197	     -2.30064389	    -17.10214385	      7.60344283	      4.41266809	      5.72527503	     -0.90756821	      2.52018126	      5.41884918
      0.96216667	     -9.97017293	      0.56715501	     -3.70014253	     -0.02909618	      1.03764744	      0.30810672	      0.96141060	     -0.13853779	     -0.50295854	    -21.73368968	     18.94647702	      2.46868750	      5.80765940	     34.47150122	     -1.42555544	     -2.13523898	    -17.67883125	      7.37025397	      4.19162415	      5.71644431	     -0.90886709	      2.46181248	      5.36164838
      0.96633333	     -9.89255526	      0.56312900	     -3.77172264	     -0.02321711	      1.03703791	      0.30764628	      1.00716418	     -0.24356221	     -0.57363073	    -22.69642585	     18.79164299	      2.77226586	      6.00125353	     34.40536416	     -1.36202709	     -1.97217723	    -18.28765924	      7.14414316	      3.96633664	      5.70423922	     -0.95268147	      2.40434333	      5.29628470
      0.97050000	     -9.84030724	      0.57820867	     -3.83529539	     -0.01732529	      1.03642168	      0.30718205	      1.11710254	     -0.37168667	     -0.66136515	    -23.72961898	     18.59170878	      3.06585594	      6.24490852	     34.36449363	     -1.27973141	     -1.81398046	    -18.91651294	      6.92271625	      3.74237790	      5.68798035	     -0.95603733	      2.31927098	      5.21992746
      0.97466667	     -9.77958357	      0.56157131	     -3.86711009	     -0.01145574	      1.03588471	      0.30663406	      1.23423318	     -0.46924621	     -0.77084940	    -24.77903592	     18.20397398	      3.19377081	     10.40698168	     34.31616784	     -1.19897492	     -1.55653015	    -19.56525965	      6.73837349	      3.40911018	      5.43315298	     -0.97647001	      2.28243421	      5.13575893
      0.97883333	     -9.71907321	      0.58726108	     -3.94376726	     -0.00558184	      1.03539149	      0.30619954	      1.41007991	     -0.61783346	     -0.85818451	    -25.93782530	     17.89467853	      3.51567500	     10.47172821	     34.27115589	     -1.13193985	     -1.52007066	    -20.24181408	      6.55299661	      3.32604362	      5.42493041	     -0.99425667	      2.17193756	      5.05350335
      0.98300000	     -9.67867088	      0.59906978	     -3.98730099	      0.00027855	      1.03491979	      0.30568469	      1.63624982	     -0.75720204	     -0.98657594	    -27.14838659	     17.50689768	      3.80544927	     10.58194433	     34.24312571	     -1.04999668	     -1.38405714	    -20.91917269	      6.42061277	      3.13158040	      5.41087170	     -0.98820181	      2.08475564	      4.96560643
      0.98716667	     -9.62987373	      0.62582299	     -4.01196186	      0.00612400	      1.03451539	      0.30512440	      1.89098123	     -0.92220102	     -1.15319102	    -28.41731354	     17.02105217	      3.98518663	     13.61384348	     34.19096419	     -0.93501145	     -1.20108813	    -21.56937071	      6.28442521	      2.84622779	      5.05077002	     -0.98462736	      1.98339129	      4.83550303
      0.99133333	     -9.56549308	      0.64463456	     -4.05517808	      0.01194092	      1.03419207	      0.30461517	      2.16616221	     -1.08136844	     -1.29382384	    -29.74356084	     16.49845492	      4.28197075	     13.66582980	     34.12614480	     -0.85595409	     -1.12739598	    -22.24174429	      6.23478515	      2.74771507	      5.04348824	     -1.02161564	      1.88002130	      4.75521429
      0.99550000	     -9.52800184	      0.67481839	     -4.07969245	      0.01774005	      1.03386436	      0.30406250	      2.51319696	     -1.26229326	     -1.47834701	    -31.14744001	     15.96013372	      4.55108520	     13.79144997	     34.07803796	     -0.75333830	     -1.02306750	    -22.88970270	      6.19807156	      2.58189987	      5.02494631	     -1.01459424	      1.76717695	      4.64250820
      0.99966667	     -9.49587774	      0.71607339	     -4.09780128	      0.02352455	      1.03359490	      0.30350198	      2.89968748	     -1.46033157	     -1.67118370	    -32.59684576	     15.35138161	      4.78862485	     14.00380041	     34.02237451	     -0.63860627	     -0.93269744	    -23.51537797	      6.19152997	      2.41063905	      4.99273007	     -1.00071884	      1.64284542	      4.52045973
      1.00383333	     -9.43256139	      0.75759095	     -4.11734709	      0.02927757	      1.03345572	      0.30296245	      3.28106487	     -1.66137117	     -1.84378273	    -34.06602592	     14.55701711	      4.91299564	     17.80690071	     33.91187822	     -0.52471036	     -0.85110026	    -24.10354515	      6.26178523	      2.27233399	      4.38395115	     -1.03951347	      1.50440297	      4.39039055
      1.00800000	     -9.40127302	      0.80568144	     -4.12813570	      0.03500481	      1.03329081	      0.30242401	      3.73686446	     -1.87288300	     -2.03378770	    -35.60737804	     13.81168504	      5.08064332	     17.85308107	     33.82625019	     -0.40960215	     -0.79777805	    -24.67225066	      6.36827086	      2.18588490	      4.37712086	     -1.03466103	      1.35484898	      4.28861269
      1.01216667	     -9.34492989	      0.86308674	     -4.14055116	      0.04070383	      1.03324483	      0.30190065	      4.19485848	     -2.09757848	     -2.20990508	    -37.17617191	     12.97802196	      5.19780716	     17.90490061	     33.68527282	     -0.28552171	     -0.75327051	    -25.18518850	      6.52702586	      2.12049298	      4.36981929	     -1.06712481	      1.19231432	      4.18444772
      1.01633333	     -9.34142352	      0.92657716	     -4.14612592	      0.04636377	      1.03313950	      0.30136984	      4.74899804	     -2.33332643	     -2.40312944	    -38.80227502	     12.16916893	      5.32787608	     18.13103078	     33.59255443	     -0.15767921	     -0.71869833	    -25.68178341	      6.70561270	      1.99609836	      4.32473156	     -1.02726729	      1.03185805	      4.02798385
      1.02050000	     -9.26829087	      1.01371576	     -4.14693073	      0.05200632	      1.03324332	      0.30087271	      5.24714506	     -2.59751681	     -2.58470732	    -40.43100976	     11.25045225	      5.34625163	     18.20955738	     33.38892990	     -0.00727317	     -0.71655675	    -26.10029915	      6.90978098	      1.98065209	      4.31003010	     -1.08403500	      0.82520312	      3.93063110
      1.02466667	     -9.24660852	      1.09371919	     -4.14568879	      0.05759227	      1.03327900	      0.30039119	      5.83601729	     -2.85236152	     -2.76869051	    -42.10436042	     10.35322776	      5.32706381	     18.38151813	     33.23466391	      0.12635045	     -0.74369211	    -26.50502036	      7.13073580	      1.95302361	      4.27003275	     -1.07537884	      0.61980684	      3.79115117
      1.02883333	     -9.21470596	      1.18504767	     -4.14652940	      0.06315290	      1.03341266	      0.29992857	      6.43340345	     -3.11615374	     -2.92696388	    -43.77735883	      9.40441495	      5.24379139	     18.55484024	     33.03972976	      0.27186079	     -0.76398572	    -26.85249548	      7.39973701	      1.93960586	      4.22400392	     -1.08517911	      0.41549702	      3.66735345
      1.03300000	     -9.18457404	      1.27830222	     -4.14549455	      0.06867391	      1.03358020	      0.29948461	      7.05515193	     -3.38127118	     -3.08337610	    -45.46132212	      8.45367022	      5.10645148	     18.70482657	     32.82744826	      0.41481879	     -0.80385521	    -27.15834112	      7.69920738	      1.94589258	      4.17711965	     -1.09970324	      0.19872526	      3.54742374
      1.03716667	     -9.12346060	      1.38227092	     -4.14820316	      0.07416765	      1.03387671	      0.29905357	      7.66044032	     -3.65898906	     -3.22608615	    -47.13599450	      7.50070442	      4.94612641	     18.77159237	     32.54885026	      0.57138883	     -0.83599479	    -27.39729287	      8.03684409	      1.95998295	      4.15201617	     -1.14937959	     -0.02646574	      3.43890243
      1.04133333	     -9.10193619	      1.48971863	     -4.15059587	      0.07961173	      1.03414433	      0.29867131	      8.32951936	     -3.92736627	     -3.35403474	    -48.81347867	      6.57056245	      4.63707651	     18.85249573	     32.30802244	      0.71612667	     -0.91426875	    -27.62119679	      8.33813150	      1.98621003	      4.10509517	     -1.16356304	     -0.26349584	      3.31564672
